<svg width="207" height="40" viewBox="0 0 207 40" fill="none" xmlns="http://www.w3.org/2000/svg">
<g id="Frame 1000009648">
<path id="Vector" d="M4.8709 30.0805C7.26214 31.8629 9.37746 32.6984 11.1985 32.6984C13.0563 32.6984 13.792 32.1785 13.792 31.1202C13.792 29.7648 11.4008 29.1336 8.80724 28.0753C5.809 26.887 2.27734 24.6218 2.27734 20.3329C2.27734 15.2085 6.41601 11.8665 12.5412 11.8665C16.7903 11.8665 19.8069 13.5932 22.0878 15.3199L18.1514 20.6671C16.2936 19.3117 14.4726 18.4762 12.8539 18.4762C11.3456 18.4762 10.5731 18.9033 10.5731 19.943C10.5731 21.2984 12.8539 21.8182 15.4475 22.7652C18.5561 23.9163 22.0878 25.9029 22.0878 30.6189C22.0878 35.5391 18.2434 39.3081 10.9961 39.3081C7.6852 39.3081 3.6385 37.8414 0.93457 35.6505L4.8709 30.0805Z" fill="black"/>
<path id="Vector_2" d="M35.3683 12.4791H26.4472V38.6583H35.3683V12.4791Z" fill="black"/>
<path id="Vector_3" d="M41.3648 12.4792H48.6304L49.2558 15.6727H49.4582C51.5367 13.6303 53.7072 11.8479 57.2389 11.8479C60.7705 11.8479 62.9962 13.3147 64.3942 16.044C66.5279 13.8531 68.8455 11.8479 72.3772 11.8479C78.0794 11.8479 80.5626 16.044 80.5626 22.5238V38.6398H71.6414V23.6749C71.6414 20.3329 70.8137 19.4788 69.0479 19.4788C68.0178 19.4788 66.767 20.1101 65.4242 21.4655V38.6398H56.5031V23.6749C56.5031 20.3329 55.6754 19.4788 53.9095 19.4788C52.8795 19.4788 51.6287 20.1101 50.2859 21.4655V38.6398H41.3648V12.4792Z" fill="black"/>
<path id="Vector_4" d="M97.4851 11.8665C105.155 11.8665 108.797 17.5108 108.797 24.529C108.797 26.1072 108.595 27.4625 108.43 28.0938H93.6408C94.4685 31.4358 96.7494 32.4941 99.6556 32.4941C101.421 32.4941 103.077 31.9743 104.953 30.916L107.859 36.2632C105.063 38.2498 101.33 39.3081 98.4232 39.3081C90.8449 39.3081 85.0507 34.2766 85.0507 25.5873C85.0323 17.1023 91.1576 11.8665 97.4851 11.8665ZM101.219 22.6352C101.219 20.4443 100.391 18.6619 97.6875 18.6619C95.7193 18.6619 94.0638 19.7573 93.5304 22.6352H101.219Z" fill="black"/>
<path id="Vector_5" d="M113.654 2.23029H122.575V29.7648C122.575 31.5472 123.402 32.0671 124.028 32.0671C124.341 32.0671 124.543 32.0671 124.966 31.9557L125.996 38.5469C125.058 38.9739 123.605 39.271 121.637 39.271C115.622 39.271 113.654 35.2977 113.654 29.4306V2.23029Z" fill="black"/>
<path id="Vector_6" d="M142.385 21.7069C142.183 19.8316 141.042 18.9775 138.761 18.9775C136.904 18.9775 134.917 19.7016 132.232 21.1684L129.123 15.3013C132.747 13.1104 136.481 11.8479 140.527 11.8479C147.26 11.8479 151.306 15.5056 151.306 24.102V38.6583H144.041L143.415 36.1518H143.213C141.134 38.0271 138.853 39.2896 136.058 39.2896C131.183 39.2896 128.277 35.5205 128.277 31.2316C128.277 25.773 132.434 22.7466 142.385 21.7069ZM139.166 32.3828C140.619 32.3828 141.447 31.6586 142.385 30.6003V27.0355C138.136 27.6668 136.793 29.0222 136.793 30.4889C136.793 31.6958 137.621 32.3828 139.166 32.3828Z" fill="black"/>
<path id="Vector_7" d="M157.211 2.23029H166.132V10.7153L165.93 14.4844C167.751 12.8133 170.031 11.8664 172.312 11.8664C178.438 11.8664 182.429 17.1023 182.429 25.1046C182.429 34.1651 177.132 39.2896 171.65 39.2896C169.369 39.2896 167.088 38.1384 165.12 35.8361H164.918L164.2 38.6583H157.248V2.23029H157.211ZM169.461 31.9557C171.54 31.9557 173.306 30.2847 173.306 25.2531C173.306 20.9642 172.055 19.1818 169.682 19.1818C168.339 19.1818 167.291 19.7016 166.15 21.0756V30.7117C167.18 31.6401 168.321 31.9557 169.461 31.9557Z" fill="black"/>
<path id="Vector_8" d="M188.849 30.0805C191.24 31.8629 193.355 32.6984 195.176 32.6984C197.034 32.6984 197.77 32.1785 197.77 31.1202C197.77 29.7648 195.378 29.1336 192.785 28.0753C189.768 26.8684 186.255 24.6218 186.255 20.3329C186.255 15.2085 190.412 11.8479 196.519 11.8479C200.768 11.8479 203.785 13.5746 206.065 15.3013L202.129 20.6486C200.253 19.2932 198.45 18.4577 196.832 18.4577C195.323 18.4577 194.551 18.8847 194.551 19.9244C194.551 21.2798 196.832 21.7997 199.425 22.7466C202.534 23.8977 206.065 25.8844 206.065 30.6003C206.065 35.5205 202.221 39.2896 194.974 39.2896C191.663 39.2896 187.616 37.8228 184.912 35.6319L188.849 30.0805Z" fill="black"/>
<path id="Vector_9" d="M35.3683 4.73682C35.3683 7.22477 33.3633 9.24855 30.8985 9.24855C28.4337 9.24855 26.4288 7.22477 26.4288 4.73682C26.4288 2.24888 28.4337 0.225098 30.8985 0.225098C33.3633 0.225098 35.3683 2.24888 35.3683 4.73682Z" fill="#4ABD95"/>
</g>
</svg>
