<svg width="25" height="25" viewBox="0 0 25 25" fill="none" xmlns="http://www.w3.org/2000/svg">
<g id="bell (1) 1" clip-path="url(#clip0_1038_19)">
<path id="Vector" d="M7.73328 21.875C8.13709 22.8035 8.80331 23.5939 9.6501 24.1491C10.4969 24.7042 11.4874 24.9999 12.4999 24.9999C13.5125 24.9999 14.503 24.7042 15.3498 24.1491C16.1966 23.5939 16.8628 22.8035 17.2666 21.875H7.73328Z" fill="#0D0C22" fill-opacity="0.5"/>
<path id="Vector_2" d="M23.325 13.0718L21.5167 7.11037C20.9376 5.02532 19.6786 3.19347 17.9395 1.90569C16.2004 0.617904 14.081 -0.0520034 11.9177 0.00233037C9.75436 0.0566641 7.67122 0.832125 5.99897 2.20559C4.32673 3.57905 3.16123 5.47179 2.68754 7.58329L1.28338 13.351C1.09675 14.1174 1.08663 14.9162 1.25381 15.6871C1.42098 16.458 1.76106 17.1808 2.2484 17.8011C2.73574 18.4213 3.35759 18.9228 4.06704 19.2676C4.77649 19.6124 5.55499 19.7916 6.34379 19.7916H18.3407C19.1539 19.7917 19.9559 19.6012 20.6824 19.2356C21.4088 18.87 22.0395 18.3393 22.524 17.6861C23.0085 17.033 23.3333 16.2754 23.4724 15.4741C23.6115 14.6728 23.5611 13.8501 23.325 13.0718Z" fill="#0D0C22" fill-opacity="0.5"/>
</g>
<defs>
<clipPath id="clip0_1038_19">
<rect width="25" height="25" fill="white"/>
</clipPath>
</defs>
</svg>
