<svg width="20" height="21" viewBox="0 0 20 21" fill="none" xmlns="http://www.w3.org/2000/svg">
<g id="Icon/Briefcase" clip-path="url(#clip0_258_895)">
<path id="Vector" d="M15.8333 3.92049H14.9167C14.7233 2.98 14.2115 2.13495 13.4677 1.52776C12.7239 0.920567 11.7935 0.58837 10.8333 0.587158L9.16667 0.587158C8.2065 0.58837 7.2761 0.920567 6.53229 1.52776C5.78848 2.13495 5.27675 2.98 5.08333 3.92049H4.16667C3.062 3.92181 2.00296 4.36123 1.22185 5.14234C0.440735 5.92346 0.00132321 6.9825 0 8.08716L0 16.4205C0.00132321 17.5252 0.440735 18.5842 1.22185 19.3653C2.00296 20.1464 3.062 20.5858 4.16667 20.5872H15.8333C16.938 20.5858 17.997 20.1464 18.7782 19.3653C19.5593 18.5842 19.9987 17.5252 20 16.4205V8.08716C19.9987 6.9825 19.5593 5.92346 18.7782 5.14234C17.997 4.36123 16.938 3.92181 15.8333 3.92049ZM9.16667 2.25382H10.8333C11.3485 2.25596 11.8505 2.41723 12.2706 2.71556C12.6906 3.0139 13.0083 3.43473 13.18 3.92049H6.82C6.99174 3.43473 7.30936 3.0139 7.72942 2.71556C8.14948 2.41723 8.65145 2.25596 9.16667 2.25382ZM4.16667 5.58716H15.8333C16.4964 5.58716 17.1323 5.85055 17.6011 6.31939C18.0699 6.78823 18.3333 7.42412 18.3333 8.08716V10.5872H1.66667V8.08716C1.66667 7.42412 1.93006 6.78823 2.3989 6.31939C2.86774 5.85055 3.50363 5.58716 4.16667 5.58716ZM15.8333 18.9205H4.16667C3.50363 18.9205 2.86774 18.6571 2.3989 18.1883C1.93006 17.7194 1.66667 17.0835 1.66667 16.4205V12.2538H9.16667V13.0872C9.16667 13.3082 9.25446 13.5201 9.41074 13.6764C9.56702 13.8327 9.77899 13.9205 10 13.9205C10.221 13.9205 10.433 13.8327 10.5893 13.6764C10.7455 13.5201 10.8333 13.3082 10.8333 13.0872V12.2538H18.3333V16.4205C18.3333 17.0835 18.0699 17.7194 17.6011 18.1883C17.1323 18.6571 16.4964 18.9205 15.8333 18.9205Z" fill="white" fill-opacity="0.5"/>
</g>
<defs>
<clipPath id="clip0_258_895">
<rect width="20" height="20" fill="white" transform="translate(0 0.587158)"/>
</clipPath>
</defs>
</svg>
