<svg width="20" height="20" viewBox="0 0 20 20" fill="none" xmlns="http://www.w3.org/2000/svg">
<g id="Icon / Help-circle" clip-path="url(#clip0_253_862)">
<g id="Union">
<path d="M8.33331 7.49992C8.33331 7.01077 8.51576 6.69795 8.75527 6.49472C9.01291 6.27612 9.38612 6.14575 9.79165 6.14575C10.1972 6.14575 10.5704 6.27612 10.828 6.49472C11.0675 6.69795 11.25 7.01077 11.25 7.49992C11.25 7.86422 11.1641 8.06648 11.0644 8.21605C10.9481 8.39056 10.795 8.52818 10.5361 8.7609L10.4842 8.80759C10.2178 9.04729 9.86745 9.37133 9.60029 9.84333C9.32496 10.3297 9.16665 10.9175 9.16665 11.6666C9.16665 12.1268 9.53974 12.4999 9.99998 12.4999C10.4602 12.4999 10.8333 12.1268 10.8333 11.6666C10.8333 11.1657 10.9354 10.868 11.0507 10.6643C11.1742 10.4462 11.3446 10.2755 11.5991 10.0464C11.622 10.0258 11.6462 10.0043 11.6714 9.98182C11.8991 9.77883 12.211 9.50079 12.4512 9.14056C12.7421 8.70419 12.9166 8.17728 12.9166 7.49992C12.9166 6.53073 12.5262 5.74981 11.9063 5.22387C11.3046 4.7133 10.5319 4.47909 9.79165 4.47909C9.05134 4.47909 8.27872 4.7133 7.67698 5.22387C7.05712 5.74981 6.66665 6.53073 6.66665 7.49992C6.66665 7.96016 7.03974 8.33325 7.49998 8.33325C7.96022 8.33325 8.33331 7.96016 8.33331 7.49992Z" fill="white" fill-opacity="0.5"/>
<path d="M10.6249 15.5597C10.9345 15.2191 10.9094 14.6921 10.5689 14.3825C10.2283 14.0729 9.70131 14.098 9.39171 14.4385L9.38338 14.4477C9.07378 14.7882 9.09886 15.3153 9.4394 15.6249C9.77994 15.9345 10.307 15.9094 10.6166 15.5688L10.6249 15.5597Z" fill="white" fill-opacity="0.5"/>
<path fill-rule="evenodd" clip-rule="evenodd" d="M9.99998 0.833252C4.93724 0.833252 0.833313 4.93718 0.833313 9.99992C0.833313 15.0627 4.93724 19.1666 9.99998 19.1666C15.0627 19.1666 19.1666 15.0627 19.1666 9.99992C19.1666 4.93718 15.0627 0.833252 9.99998 0.833252ZM2.49998 9.99992C2.49998 5.85766 5.85772 2.49992 9.99998 2.49992C14.1422 2.49992 17.5 5.85766 17.5 9.99992C17.5 14.1422 14.1422 17.4999 9.99998 17.4999C5.85772 17.4999 2.49998 14.1422 2.49998 9.99992Z" fill="white" fill-opacity="0.5"/>
</g>
</g>
<defs>
<clipPath id="clip0_253_862">
<rect width="20" height="20" fill="white"/>
</clipPath>
</defs>
</svg>
