<svg width="20" height="21" viewBox="0 0 20 21" fill="none" xmlns="http://www.w3.org/2000/svg">
<g id="Icon / Home-simple-door">
<path id="Union" fill-rule="evenodd" clip-rule="evenodd" d="M10 2.8186C9.23863 2.8186 8.4918 3.02723 7.84064 3.42182L3.67398 5.94682C3.06126 6.31811 2.55462 6.84113 2.20301 7.46535C1.85139 8.08957 1.66668 8.79391 1.66669 9.51034V14.7537C1.66669 15.8587 2.10567 16.9186 2.88708 17.7C3.66848 18.4814 4.72828 18.9203 5.83335 18.9203H14.1667C15.2718 18.9203 16.3316 18.4814 17.113 17.7C17.8944 16.9186 18.3334 15.8587 18.3334 14.7537V9.50951C18.3332 8.79324 18.1484 8.08892 17.7968 7.4649C17.4452 6.84087 16.9386 6.31803 16.3261 5.94682L12.1594 3.42182C11.5082 3.02723 10.7614 2.8186 10 2.8186ZM8.70441 4.84719C9.0951 4.61044 9.54319 4.48527 10 4.48527C10.4568 4.48527 10.9049 4.61044 11.2956 4.84719L15.4623 7.37219C15.8298 7.59491 16.1338 7.90863 16.3447 8.28305C16.5557 8.65741 16.6666 9.07981 16.6667 9.50951V14.7537C16.6667 15.4167 16.4033 16.0526 15.9345 16.5214C15.4656 16.9903 14.8297 17.2537 14.1667 17.2537H13.3334V14.7537C13.3334 13.8696 12.9822 13.0218 12.357 12.3967C11.7319 11.7715 10.8841 11.4203 10 11.4203C9.11596 11.4203 8.26812 11.7715 7.643 12.3967C7.01788 13.0218 6.66669 13.8696 6.66669 14.7537V17.2537H5.83335C5.17031 17.2537 4.53443 16.9903 4.06559 16.5214C3.59675 16.0526 3.33335 15.4167 3.33335 14.7537V9.51034C3.33334 9.08048 3.44418 8.65785 3.65515 8.28332C3.86612 7.90878 4.17009 7.59498 4.53773 7.3722L8.70441 4.84719ZM11.1785 13.5752C11.4911 13.8877 11.6667 14.3116 11.6667 14.7537V17.2537H8.33335V14.7537C8.33335 14.3116 8.50895 13.8877 8.82151 13.5752C9.13407 13.2626 9.55799 13.087 10 13.087C10.442 13.087 10.866 13.2626 11.1785 13.5752Z" fill="white" fill-opacity="0.5"/>
</g>
</svg>
