<svg width="180" height="45" viewBox="0 0 180 45" fill="none" xmlns="http://www.w3.org/2000/svg">
<path d="M8.93499 29.7877C10.9004 31.182 12.639 31.8355 14.1357 31.8355C15.6627 31.8355 16.2674 31.4289 16.2674 30.601C16.2674 29.5408 14.302 29.047 12.1703 28.2192C9.70603 27.2897 6.80329 25.5178 6.80329 22.1629C6.80329 18.1544 10.2049 15.5402 15.2394 15.5402C18.7317 15.5402 21.2112 16.8908 23.0858 18.2415L19.8505 22.4243C18.3235 21.3641 16.8268 20.7105 15.4964 20.7105C14.2567 20.7105 13.6217 21.0446 13.6217 21.8579C13.6217 22.9181 15.4964 23.3248 17.6281 24.0655C20.1831 24.9659 23.0858 26.5199 23.0858 30.2089C23.0858 34.0576 19.9261 37.0059 13.9694 37.0059C11.2481 37.0059 7.92205 35.8585 5.69965 34.1448L8.93499 29.7877Z" fill="white"/>
<path d="M34.0013 16.0194H26.6689V36.4975H34.0013V16.0194Z" fill="white"/>
<path d="M38.9299 16.0194H44.9017L45.4157 18.5175H45.582C47.2904 16.9199 49.0744 15.5256 51.9771 15.5256C54.8799 15.5256 56.7092 16.673 57.8582 18.8079C59.6119 17.0942 61.5169 15.5256 64.4196 15.5256C69.1063 15.5256 71.1473 18.8079 71.1473 23.8766V36.483H63.8149V24.7771C63.8149 22.1629 63.1345 21.4948 61.6832 21.4948C60.8365 21.4948 59.8085 21.9886 58.7048 23.0488V36.483H51.3724V24.7771C51.3724 22.1629 50.6921 21.4948 49.2407 21.4948C48.3941 21.4948 47.366 21.9886 46.2624 23.0488V36.483H38.9299V16.0194Z" fill="white"/>
<path d="M85.0563 15.5402C91.3607 15.5402 94.3541 19.9553 94.3541 25.4452C94.3541 26.6797 94.1878 27.7399 94.0517 28.2337H81.8965C82.5769 30.8479 84.4515 31.6758 86.8403 31.6758C88.2916 31.6758 89.6523 31.2691 91.1944 30.4413L93.5831 34.624C91.2851 36.178 88.216 37.0059 85.8273 37.0059C79.5985 37.0059 74.8362 33.07 74.8362 26.273C74.8211 19.6358 79.8555 15.5402 85.0563 15.5402ZM88.1253 23.9638C88.1253 22.25 87.445 20.8558 85.2226 20.8558C83.6049 20.8558 82.2442 21.7126 81.8058 23.9638H88.1253Z" fill="white"/>
<path d="M98.3453 8.00244H105.678V29.5408C105.678 30.9351 106.358 31.3417 106.872 31.3417C107.129 31.3417 107.295 31.3417 107.643 31.2546L108.49 36.4104C107.719 36.7445 106.524 36.9768 104.907 36.9768C99.963 36.9768 98.3453 33.8688 98.3453 29.2794V8.00244Z" fill="white"/>
<path d="M121.96 23.2376C121.794 21.7707 120.857 21.1027 118.982 21.1027C117.455 21.1027 115.822 21.6691 113.615 22.8164L111.06 18.227C114.038 16.5132 117.107 15.5256 120.433 15.5256C125.967 15.5256 129.293 18.3868 129.293 25.1111V36.4976H123.321L122.807 34.5369H122.641C120.932 36.0038 119.058 36.9914 116.76 36.9914C112.753 36.9914 110.365 34.0431 110.365 30.6882C110.365 26.4183 113.781 24.0509 121.96 23.2376ZM119.315 31.5886C120.509 31.5886 121.189 31.0222 121.96 30.1944V27.4059C118.468 27.8996 117.364 28.9599 117.364 30.1072C117.364 31.0512 118.045 31.5886 119.315 31.5886Z" fill="white"/>
<path d="M134.146 8.00244H141.478V14.6397L141.312 17.588C142.809 16.2808 144.683 15.5401 146.558 15.5401C151.592 15.5401 154.873 19.6358 154.873 25.8954C154.873 32.9829 150.519 36.9914 146.014 36.9914C144.139 36.9914 142.264 36.0909 140.647 34.29H140.48L139.891 36.4976H134.176V8.00244H134.146ZM144.215 31.2546C145.923 31.2546 147.374 29.9475 147.374 26.0116C147.374 22.6567 146.346 21.2624 144.396 21.2624C143.292 21.2624 142.431 21.6691 141.493 22.7438V30.2815C142.34 31.0077 143.277 31.2546 144.215 31.2546Z" fill="white"/>
<path d="M160.149 29.7877C162.115 31.182 163.853 31.8355 165.35 31.8355C166.877 31.8355 167.482 31.4289 167.482 30.601C167.482 29.5408 165.516 29.047 163.385 28.2192C160.905 27.2751 158.018 25.5178 158.018 22.1629C158.018 18.1544 161.434 15.5256 166.454 15.5256C169.946 15.5256 172.426 16.8763 174.3 18.227L171.065 22.4098C169.523 21.3496 168.041 20.696 166.711 20.696C165.471 20.696 164.836 21.03 164.836 21.8434C164.836 22.9036 166.711 23.3102 168.843 24.0509C171.398 24.9514 174.3 26.5054 174.3 30.1944C174.3 34.0431 171.14 36.9914 165.184 36.9914C162.463 36.9914 159.136 35.844 156.914 34.1302L160.149 29.7877Z" fill="white"/>
<path d="M34.0014 9.96317C34.0014 11.9093 32.3535 13.4924 30.3276 13.4924C28.3017 13.4924 26.6538 11.9093 26.6538 9.96317C26.6538 8.01702 28.3017 6.43396 30.3276 6.43396C32.3535 6.43396 34.0014 8.01702 34.0014 9.96317Z" fill="#4ABD95"/>
</svg>
