<svg width="20" height="21" viewBox="0 0 20 21" fill="none" xmlns="http://www.w3.org/2000/svg">
<g id="Icon / Page">
<g id="Union">
<path d="M6.66667 8.0872C6.20643 8.0872 5.83333 8.4603 5.83333 8.92053C5.83333 9.38077 6.20643 9.75387 6.66667 9.75387H13.3333C13.7936 9.75387 14.1667 9.38077 14.1667 8.92053C14.1667 8.4603 13.7936 8.0872 13.3333 8.0872H6.66667Z" fill="white" fill-opacity="0.5"/>
<path d="M6.66667 11.4205C6.20643 11.4205 5.83333 11.7936 5.83333 12.2539C5.83333 12.7141 6.20643 13.0872 6.66667 13.0872H10C10.4602 13.0872 10.8333 12.7141 10.8333 12.2539C10.8333 11.7936 10.4602 11.4205 10 11.4205H6.66667Z" fill="white" fill-opacity="0.5"/>
<path d="M6.66667 14.7539C6.20643 14.7539 5.83333 15.127 5.83333 15.5872C5.83333 16.0474 6.20643 16.4205 6.66667 16.4205H13.3333C13.7936 16.4205 14.1667 16.0474 14.1667 15.5872C14.1667 15.127 13.7936 14.7539 13.3333 14.7539H6.66667Z" fill="white" fill-opacity="0.5"/>
<path fill-rule="evenodd" clip-rule="evenodd" d="M17.399 4.86852C17.3319 4.70621 17.2335 4.55875 17.1093 4.43461L14.4863 1.81164C14.2365 1.56152 13.8976 1.42084 13.5441 1.42053H3.83333C3.47971 1.42053 3.14057 1.56101 2.89052 1.81106C2.64048 2.0611 2.5 2.40024 2.5 2.75387V18.4205C2.5 18.5956 2.53449 18.769 2.60149 18.9308C2.6685 19.0925 2.76671 19.2395 2.89052 19.3633C3.01433 19.4872 3.16132 19.5854 3.32309 19.6524C3.48486 19.7194 3.65824 19.7539 3.83333 19.7539H16.1667C16.3418 19.7539 16.5151 19.7194 16.6769 19.6524C16.8387 19.5854 16.9857 19.4872 17.1095 19.3633C17.2333 19.2395 17.3315 19.0925 17.3985 18.9308C17.4655 18.769 17.5 18.5956 17.5 18.4205V5.37912L16.6667 5.37887L17.5 5.38091L17.5 5.37912C17.5002 5.20394 17.4659 5.03043 17.399 4.86852ZM12.5 5.17053C12.5 5.86089 13.0596 6.42053 13.75 6.42053H15.8333V18.0872H4.16667V3.0872H12.5V5.17053ZM15.0715 4.75387L14.1667 3.84904V4.75387H15.0715Z" fill="white" fill-opacity="0.5"/>
</g>
</g>
</svg>
