<svg width="20" height="21" viewBox="0 0 20 21" fill="none" xmlns="http://www.w3.org/2000/svg">
<g id="Icon/Pencil-Ruler" clip-path="url(#clip0_258_903)">
<path id="Vector" d="M20 16.0755C20 16.9655 19.6533 17.8022 19.0233 18.4322L17.845 19.6105C17.2158 20.2405 16.3783 20.5872 15.4883 20.5872C14.5983 20.5872 13.7608 20.2405 13.1308 19.6105L10.8892 17.3688C10.5633 17.043 10.5633 16.5163 10.8892 16.1905C11.215 15.8647 11.7417 15.8647 12.0675 16.1905L14.3092 18.4322C14.9392 19.0622 16.0367 19.0622 16.6667 18.4322L17.845 17.2538C18.16 16.9388 18.3333 16.5205 18.3333 16.0755C18.3333 15.6305 18.16 15.2122 17.845 14.8972L16.2358 13.2872L15.0567 14.4655C14.7308 14.7913 14.2042 14.7913 13.8783 14.4655C13.5525 14.1397 13.5525 13.613 13.8783 13.2872L15.6467 11.5197C15.9725 11.1938 16.4992 11.1938 16.825 11.5197L19.0233 13.7188C19.6533 14.348 20 15.1847 20 16.0755ZM3.21833 9.69801C3.38083 9.86051 3.59417 9.94218 3.8075 9.94218C4.02083 9.94218 4.23417 9.86051 4.39667 9.69801C4.7225 9.37218 4.7225 8.84551 4.39667 8.51968L2.155 6.27801C1.84 5.96301 1.66667 5.54468 1.66667 5.09968C1.66667 4.65468 1.84 4.23635 2.155 3.92135L3.33333 2.74301C3.96333 2.11301 5.06083 2.11301 5.69083 2.74301L7.30083 4.35301L6.12167 5.53135C5.79583 5.85718 5.79583 6.38385 6.12167 6.70968C6.4475 7.03551 6.97417 7.03551 7.3 6.70968L9.06833 4.94218C9.225 4.78551 9.3125 4.57468 9.3125 4.35301C9.3125 4.13135 9.225 3.91968 9.06833 3.76385L6.86917 1.56468C5.61 0.303846 3.41417 0.303846 2.155 1.56385L0.976667 2.74218C0.346667 3.37218 0 4.20885 0 5.09885C0 5.98885 0.346667 6.82635 0.976667 7.45551L3.21833 9.69801ZM19.1042 5.81135L5.79167 19.1222C4.84833 20.0672 3.5925 20.5872 2.25667 20.5872H0.833333C0.373333 20.5872 0 20.2147 0 19.7538V18.3305C0 16.9947 0.52 15.7397 1.46417 14.7955L14.7758 1.48301C15.9683 0.290513 17.91 0.288846 19.1033 1.48301C20.2958 2.67635 20.2958 4.61801 19.1033 5.81051L19.1042 5.81135ZM14.7708 7.78718L12.8 5.81635L2.6425 15.9738C2.01333 16.6038 1.66667 17.4405 1.66667 18.3305V18.9205H2.25667C3.1475 18.9205 3.98417 18.5738 4.61333 17.9438L14.7717 7.78635L14.7708 7.78718ZM17.925 2.66218C17.3817 2.11885 16.4983 2.11968 15.9542 2.66218L13.9783 4.63801L15.9492 6.60885L17.925 4.63301C18.4675 4.08968 18.4675 3.20551 17.925 2.66218Z" fill="white" fill-opacity="0.5"/>
</g>
<defs>
<clipPath id="clip0_258_903">
<rect width="20" height="20" fill="white" transform="translate(0 0.587158)"/>
</clipPath>
</defs>
</svg>
