<svg width="20" height="21" viewBox="0 0 20 21" fill="none" xmlns="http://www.w3.org/2000/svg">
<g id="Icon / Reports">
<path id="Union" fill-rule="evenodd" clip-rule="evenodd" d="M13 2.25378C12.6464 2.25378 12.3073 2.39426 12.0572 2.64431C11.8072 2.89436 11.6667 3.2335 11.6667 3.58712V7.25378H8.00002C7.6464 7.25378 7.30726 7.39426 7.05721 7.64431C6.80716 7.89436 6.66669 8.2335 6.66669 8.58712V13.0871H3.00002C2.6464 13.0871 2.30726 13.2276 2.05721 13.4776C1.80716 13.7277 1.66669 14.0668 1.66669 14.4204V17.5871C1.66669 17.9407 1.80716 18.2799 2.05721 18.5299C2.30726 18.78 2.6464 18.9204 3.00002 18.9204H17C17.3536 18.9204 17.6928 18.78 17.9428 18.5299C18.1929 18.2799 18.3333 17.9407 18.3333 17.5871V3.58712C18.3333 3.2335 18.1929 2.89436 17.9428 2.64431C17.6928 2.39426 17.3536 2.25378 17 2.25378H13ZM8.33335 8.92045H11.6667V17.2538H8.33335V8.92045ZM16.6667 17.2538H13.3334V3.92045H16.6667V17.2538ZM6.66669 14.7538V17.2538H3.33335V14.7538H6.66669Z" fill="white" fill-opacity="0.5"/>
</g>
</svg>
