<svg width="20" height="21" viewBox="0 0 20 21" fill="none" xmlns="http://www.w3.org/2000/svg">
<g id="Icon / Settings">
<g id="Union">
<path fill-rule="evenodd" clip-rule="evenodd" d="M9.99998 7.25387C9.11592 7.25387 8.26808 7.60505 7.64296 8.23018C7.01783 8.8553 6.66665 9.70314 6.66665 10.5872C6.66665 11.4713 7.01783 12.3191 7.64296 12.9442C8.26808 13.5693 9.11592 13.9205 9.99998 13.9205C10.884 13.9205 11.7319 13.5693 12.357 12.9442C12.9821 12.3191 13.3333 11.4713 13.3333 10.5872C13.3333 9.70314 12.9821 8.8553 12.357 8.23018C11.7319 7.60505 10.884 7.25387 9.99998 7.25387ZM8.82147 9.40869C9.13403 9.09613 9.55795 8.92053 9.99998 8.92053C10.442 8.92053 10.8659 9.09613 11.1785 9.40869C11.4911 9.72125 11.6666 10.1452 11.6666 10.5872C11.6666 11.0292 11.4911 11.4531 11.1785 11.7657C10.8659 12.0783 10.442 12.2539 9.99998 12.2539C9.55795 12.2539 9.13403 12.0783 8.82147 11.7657C8.50891 11.4531 8.33331 11.0292 8.33331 10.5872C8.33331 10.1452 8.50891 9.72125 8.82147 9.40869Z" fill="white" fill-opacity="0.5"/>
<path fill-rule="evenodd" clip-rule="evenodd" d="M9.15081 1.42053C8.77227 1.42053 8.44129 1.67567 8.34493 2.04174L7.92263 3.64607L6.58093 4.21166L5.55389 3.29793C5.22413 3.00456 4.72282 3.01918 4.41072 3.33128L2.74406 4.99794C2.44214 5.29986 2.41727 5.78114 2.68645 6.11257L3.58656 7.22082L3.03459 8.57876L1.47719 8.94235C1.10008 9.03039 0.833313 9.36661 0.833313 9.75386V11.4205C0.833313 11.7963 1.0848 12.1256 1.44733 12.2245L3.05706 12.6636L3.62418 14.009L2.71136 15.0326C2.41735 15.3623 2.4317 15.8641 2.74406 16.1765L4.41072 17.8431C4.71305 18.1454 5.19512 18.1699 5.52652 17.8998L6.63438 16.9967L7.95894 17.5415L8.35867 19.1246C8.45211 19.4946 8.78499 19.7539 9.16665 19.7539H10.8333C11.2148 19.7539 11.5476 19.4948 11.6412 19.125L12.0419 17.5412L13.4108 16.9743C13.5486 17.0898 13.7066 17.2254 13.8638 17.3623C14.02 17.4984 14.1652 17.6265 14.2714 17.7208C14.3245 17.7679 14.3677 17.8064 14.3976 17.8331L14.4429 17.8736C14.7724 18.1692 15.2762 18.1562 15.5892 17.8431L17.2559 16.1765C17.5626 15.8697 17.5828 15.379 17.3022 15.0482L16.3945 13.9778L16.9562 12.621L18.5429 12.2087C18.9102 12.1133 19.1666 11.7817 19.1666 11.4022V9.75386C19.1666 9.37276 18.9081 9.04022 18.5388 8.94626L16.9619 8.54507L16.4016 7.19165L17.3031 6.12516C17.5828 5.79428 17.5623 5.30429 17.2559 4.99794L15.5892 3.33128C15.2816 3.02368 14.7892 3.00443 14.4585 3.28707L13.3999 4.19193L11.9988 3.61586L11.5851 2.04201C11.4888 1.6758 11.1578 1.42053 10.7791 1.42053H9.15081ZM15.5346 15.5407L14.9645 16.1108L14.9583 16.1054C14.6505 15.8374 14.254 15.4983 14.0305 15.3385C13.7965 15.1712 13.4927 15.1364 13.2269 15.2465L11.0178 16.1615C10.7746 16.2622 10.5933 16.4718 10.5288 16.7269L10.1846 18.0872H9.81571L9.47212 16.7265C9.40748 16.4705 9.22535 16.2603 8.98117 16.1599L6.8095 15.2665C6.52672 15.1502 6.20294 15.1981 5.96594 15.3913L5.05693 16.1323L4.47907 15.5544L5.2186 14.7252C5.43269 14.4851 5.48949 14.1432 5.36454 13.8468L4.43537 11.6427C4.33596 11.4068 4.1337 11.2298 3.8868 11.1624L2.49998 10.7841V10.4151L3.8336 10.1037C4.09706 10.0422 4.31427 9.85662 4.41614 9.60599L5.31614 7.39183C5.43061 7.11022 5.38265 6.78862 5.19101 6.55266L4.45391 5.64511L5.03338 5.06564L5.86607 5.80646C6.10613 6.02004 6.4476 6.07657 6.74368 5.95176L8.94785 5.02259C9.18609 4.92216 9.36422 4.71685 9.43003 4.46683L9.79318 3.0872H10.1366L10.4924 4.44073C10.5588 4.69337 10.7398 4.90026 10.9814 4.9996L13.2373 5.92709C13.5265 6.046 13.8579 5.993 14.0956 5.78983L14.9556 5.0547L15.5355 5.63454L14.801 6.50341C14.5998 6.74151 14.5483 7.07204 14.6675 7.3601L15.5817 9.56844C15.6822 9.8113 15.8914 9.9925 16.1462 10.0573L17.5 10.4017V10.7577L16.1354 11.1123C15.8825 11.178 15.675 11.3586 15.575 11.6001L14.66 13.8101C14.5406 14.0986 14.5924 14.4297 14.7944 14.6678L15.5346 15.5407Z" fill="white" fill-opacity="0.5"/>
</g>
</g>
</svg>
