<svg width="20" height="21" viewBox="0 0 20 21" fill="none" xmlns="http://www.w3.org/2000/svg">
<g id="Icon/User-Time" clip-path="url(#clip0_258_891)">
<path id="Vector" d="M14.1668 20.5872C13.0131 20.5872 11.8853 20.245 10.926 19.6041C9.96669 18.9631 9.21901 18.052 8.7775 16.9861C8.33599 15.9202 8.22047 14.7474 8.44555 13.6158C8.67063 12.4842 9.2262 11.4448 10.042 10.629C10.8578 9.81323 11.8972 9.25766 13.0288 9.03258C14.1603 8.8075 15.3332 8.92302 16.3991 9.36453C17.465 9.80604 18.3761 10.5537 19.017 11.513C19.658 12.4723 20.0001 13.6001 20.0001 14.7538C19.9984 16.3004 19.3832 17.7831 18.2896 18.8767C17.1961 19.9702 15.7134 20.5854 14.1668 20.5872ZM14.1668 10.5872C13.3427 10.5872 12.5371 10.8315 11.8519 11.2894C11.1667 11.7472 10.6327 12.398 10.3173 13.1593C10.0019 13.9207 9.91942 14.7584 10.0802 15.5667C10.241 16.375 10.6378 17.1174 11.2205 17.7001C11.8032 18.2828 12.5457 18.6797 13.3539 18.8404C14.1622 19.0012 15 18.9187 15.7613 18.6033C16.5227 18.288 17.1734 17.7539 17.6313 17.0687C18.0891 16.3835 18.3335 15.5779 18.3335 14.7538C18.3321 13.6492 17.8927 12.5901 17.1116 11.809C16.3305 11.0279 15.2715 10.5885 14.1668 10.5872ZM15.5893 16.1763C15.7455 16.0201 15.8333 15.8081 15.8333 15.5872C15.8333 15.3662 15.7455 15.1543 15.5893 14.998L15.0001 14.4088V13.0872C15.0001 12.8661 14.9123 12.6542 14.7561 12.4979C14.5998 12.3416 14.3878 12.2538 14.1668 12.2538C13.9458 12.2538 13.7338 12.3416 13.5775 12.4979C13.4213 12.6542 13.3335 12.8661 13.3335 13.0872V14.7538C13.3335 14.9748 13.4213 15.1868 13.5776 15.343L14.411 16.1763C14.5672 16.3326 14.7792 16.4203 15.0001 16.4203C15.2211 16.4203 15.433 16.3326 15.5893 16.1763ZM1.6668 19.7538C1.66891 18.2226 2.17903 16.7355 3.11721 15.5254C4.0554 14.3153 5.3686 13.4507 6.85097 13.0672C6.95778 13.043 7.05877 12.998 7.1482 12.9348C7.23762 12.8716 7.31372 12.7913 7.37214 12.6987C7.43056 12.6061 7.47017 12.5029 7.4887 12.3949C7.50723 12.287 7.50432 12.1765 7.48013 12.0697C7.45595 11.9629 7.41096 11.8619 7.34774 11.7724C7.28453 11.683 7.20431 11.6069 7.11169 11.5485C7.01906 11.4901 6.91583 11.4505 6.8079 11.4319C6.69997 11.4134 6.58944 11.4163 6.48263 11.4405C4.62516 11.8963 2.97536 12.9644 1.79928 14.4726C0.6232 15.9809 -0.0105855 17.8413 0.00013377 19.7538C0.00013377 19.9748 0.0879311 20.1868 0.244211 20.3431C0.400492 20.4994 0.612453 20.5872 0.833467 20.5872C1.05448 20.5872 1.26644 20.4994 1.42272 20.3431C1.579 20.1868 1.6668 19.9748 1.6668 19.7538ZM7.0618 9.75383C6.1553 9.75383 5.26916 9.48502 4.51544 8.9814C3.76171 8.47777 3.17425 7.76195 2.82735 6.92446C2.48045 6.08696 2.38969 5.16541 2.56653 4.27633C2.74338 3.38725 3.1799 2.57058 3.82089 1.92959C4.46188 1.2886 5.27856 0.852077 6.16764 0.675228C7.05672 0.498379 7.97827 0.589144 8.81577 0.936046C9.65326 1.28295 10.3691 1.8704 10.8727 2.62413C11.3763 3.37786 11.6451 4.264 11.6451 5.17049C11.6438 6.38566 11.1605 7.55068 10.3012 8.40994C9.44199 9.26919 8.27697 9.7525 7.0618 9.75383ZM7.0618 2.25383C6.48494 2.25383 5.92103 2.42489 5.44139 2.74537C4.96174 3.06586 4.58791 3.52138 4.36715 4.05433C4.1464 4.58728 4.08864 5.17373 4.20118 5.73951C4.31372 6.30528 4.5915 6.82499 4.99941 7.23289C5.40731 7.64079 5.92701 7.91858 6.49279 8.03112C7.05857 8.14366 7.64501 8.0859 8.17796 7.86514C8.71091 7.64439 9.16643 7.27055 9.48692 6.79091C9.80741 6.31126 9.97847 5.74736 9.97847 5.17049C9.97847 4.39695 9.67118 3.65508 9.12419 3.1081C8.57721 2.56112 7.83535 2.25383 7.0618 2.25383Z" fill="white" fill-opacity="0.5"/>
</g>
<defs>
<clipPath id="clip0_258_891">
<rect width="20" height="20" fill="white" transform="translate(0 0.587158)"/>
</clipPath>
</defs>
</svg>
