<svg width="20" height="21" viewBox="0 0 20 21" fill="none" xmlns="http://www.w3.org/2000/svg">
<g id="Icon / User 1">
<path id="Union" fill-rule="evenodd" clip-rule="evenodd" d="M9.99998 3.08716C8.89491 3.08716 7.8351 3.52614 7.0537 4.30755C6.2723 5.08895 5.83331 6.14876 5.83331 7.25382C5.83331 8.35889 6.2723 9.4187 7.0537 10.2001C7.10867 10.2551 7.16501 10.3083 7.22265 10.3599C6.50889 10.687 5.85179 11.1406 5.28593 11.7064C4.03569 12.9567 3.33331 14.6524 3.33331 16.4205V17.2538C3.33331 17.7141 3.70641 18.0872 4.16665 18.0872C4.62688 18.0872 4.99998 17.7141 4.99998 17.2538V16.4205C4.99998 15.0944 5.52676 13.8226 6.46445 12.885C7.40213 11.9473 8.6739 11.4205 9.99998 11.4205C11.3261 11.4205 12.5978 11.9473 13.5355 12.885C14.4732 13.8226 15 15.0944 15 16.4205V17.2538C15 17.7141 15.3731 18.0872 15.8333 18.0872C16.2935 18.0872 16.6666 17.7141 16.6666 17.2538V16.4205C16.6666 14.6524 15.9643 12.9567 14.714 11.7064C14.1482 11.1406 13.4911 10.687 12.7773 10.3599C12.8349 10.3083 12.8913 10.2551 12.9463 10.2001C13.7277 9.4187 14.1666 8.35889 14.1666 7.25382C14.1666 6.14876 13.7277 5.08895 12.9463 4.30755C12.1649 3.52614 11.105 3.08716 9.99998 3.08716ZM8.23221 5.48606C8.70105 5.01722 9.33694 4.75382 9.99998 4.75382C10.663 4.75382 11.2989 5.01722 11.7677 5.48606C12.2366 5.9549 12.5 6.59078 12.5 7.25382C12.5 7.91687 12.2366 8.55275 11.7677 9.02159C11.2989 9.49043 10.663 9.75382 9.99998 9.75382C9.33694 9.75382 8.70105 9.49043 8.23221 9.02159C7.76337 8.55275 7.49998 7.91687 7.49998 7.25382C7.49998 6.59078 7.76337 5.9549 8.23221 5.48606Z" fill="white" fill-opacity="0.5"/>
</g>
</svg>
