<svg width="25" height="25" viewBox="0 0 25 25" fill="none" xmlns="http://www.w3.org/2000/svg">
<path d="M13.9687 12.4999L18.4479 8.03112C18.644 7.83497 18.7542 7.56893 18.7542 7.29153C18.7542 7.01414 18.644 6.7481 18.4479 6.55195C18.2517 6.3558 17.9857 6.24561 17.7083 6.24561C17.4309 6.24561 17.1648 6.3558 16.9687 6.55195L12.4999 11.0311L8.03119 6.55195C7.83504 6.3558 7.569 6.24561 7.2916 6.24561C7.01421 6.24561 6.74817 6.3558 6.55202 6.55195C6.35587 6.7481 6.24567 7.01414 6.24567 7.29153C6.24567 7.56893 6.35587 7.83497 6.55202 8.03112L11.0312 12.4999L6.55202 16.9686C6.45439 17.0655 6.37689 17.1807 6.32401 17.3076C6.27112 17.4345 6.2439 17.5707 6.2439 17.7082C6.2439 17.8457 6.27112 17.9819 6.32401 18.1088C6.37689 18.2357 6.45439 18.3509 6.55202 18.4478C6.64886 18.5454 6.76407 18.6229 6.891 18.6758C7.01794 18.7287 7.15409 18.7559 7.2916 18.7559C7.42912 18.7559 7.56527 18.7287 7.6922 18.6758C7.81914 18.6229 7.93435 18.5454 8.03119 18.4478L12.4999 13.9686L16.9687 18.4478C17.0655 18.5454 17.1807 18.6229 17.3077 18.6758C17.4346 18.7287 17.5708 18.7559 17.7083 18.7559C17.8458 18.7559 17.9819 18.7287 18.1089 18.6758C18.2358 18.6229 18.351 18.5454 18.4479 18.4478C18.5455 18.3509 18.623 18.2357 18.6759 18.1088C18.7287 17.9819 18.756 17.8457 18.756 17.7082C18.756 17.5707 18.7287 17.4345 18.6759 17.3076C18.623 17.1807 18.5455 17.0655 18.4479 16.9686L13.9687 12.4999Z" fill="#4ABD95"/>
</svg>
