<svg width="25" height="25" viewBox="0 0 25 25" fill="none" xmlns="http://www.w3.org/2000/svg">
<g id="eva:close-outline">
<g id="evaCloseOutline0">
<g id="evaCloseOutline1">
<path id="evaCloseOutline2" d="M13.9689 12.4999L18.4481 8.03112C18.6442 7.83497 18.7544 7.56893 18.7544 7.29153C18.7544 7.01414 18.6442 6.7481 18.4481 6.55195C18.2519 6.3558 17.9859 6.24561 17.7085 6.24561C17.4311 6.24561 17.1651 6.3558 16.9689 6.55195L12.5002 11.0311L8.03143 6.55195C7.83528 6.3558 7.56924 6.24561 7.29185 6.24561C7.01445 6.24561 6.74841 6.3558 6.55226 6.55195C6.35611 6.7481 6.24592 7.01414 6.24592 7.29153C6.24592 7.56893 6.35611 7.83497 6.55226 8.03112L11.0314 12.4999L6.55226 16.9686C6.45463 17.0655 6.37714 17.1807 6.32425 17.3076C6.27137 17.4345 6.24414 17.5707 6.24414 17.7082C6.24414 17.8457 6.27137 17.9819 6.32425 18.1088C6.37714 18.2357 6.45463 18.3509 6.55226 18.4478C6.6491 18.5454 6.76431 18.6229 6.89125 18.6758C7.01818 18.7287 7.15433 18.7559 7.29185 18.7559C7.42936 18.7559 7.56551 18.7287 7.69245 18.6758C7.81938 18.6229 7.93459 18.5454 8.03143 18.4478L12.5002 13.9686L16.9689 18.4478C17.0658 18.5454 17.181 18.6229 17.3079 18.6758C17.4348 18.7287 17.571 18.7559 17.7085 18.7559C17.846 18.7559 17.9822 18.7287 18.1091 18.6758C18.2361 18.6229 18.3513 18.5454 18.4481 18.4478C18.5457 18.3509 18.6232 18.2357 18.6761 18.1088C18.729 17.9819 18.7562 17.8457 18.7562 17.7082C18.7562 17.5707 18.729 17.4345 18.6761 17.3076C18.6232 17.1807 18.5457 17.0655 18.4481 16.9686L13.9689 12.4999Z" fill="#4ABD95"/>
</g>
</g>
</g>
</svg>
