<svg width="84" height="107" viewBox="0 0 84 107" fill="none" xmlns="http://www.w3.org/2000/svg">
<circle cx="42" cy="33" r="31.5" stroke="#4ABD95" stroke-width="3"/>
<g clip-path="url(#clip0_2052_5947)">
<path d="M53.25 23H49.375C49.0849 21.5893 48.3173 20.3217 47.2016 19.4109C46.0859 18.5001 44.6903 18.0018 43.25 18H40.75C39.3097 18.0018 37.9141 18.5001 36.7984 19.4109C35.6827 20.3217 34.9151 21.5893 34.625 23H30.75C30.4185 23 30.1005 23.1317 29.8661 23.3661C29.6317 23.6005 29.5 23.9185 29.5 24.25C29.5 24.5815 29.6317 24.8995 29.8661 25.1339C30.1005 25.3683 30.4185 25.5 30.75 25.5H32V41.75C32.002 43.407 32.6611 44.9956 33.8328 46.1672C35.0044 47.3389 36.593 47.998 38.25 48H45.75C47.407 47.998 48.9956 47.3389 50.1672 46.1672C51.3389 44.9956 51.998 43.407 52 41.75V25.5H53.25C53.5815 25.5 53.8995 25.3683 54.1339 25.1339C54.3683 24.8995 54.5 24.5815 54.5 24.25C54.5 23.9185 54.3683 23.6005 54.1339 23.3661C53.8995 23.1317 53.5815 23 53.25 23ZM40.75 20.5H43.25C44.0253 20.5009 44.7814 20.7417 45.4145 21.1893C46.0476 21.6369 46.5268 22.2694 46.7863 23H37.2138C37.4732 22.2694 37.9524 21.6369 38.5855 21.1893C39.2186 20.7417 39.9747 20.5009 40.75 20.5ZM49.5 41.75C49.5 42.7446 49.1049 43.6984 48.4017 44.4017C47.6984 45.1049 46.7446 45.5 45.75 45.5H38.25C37.2554 45.5 36.3016 45.1049 35.5984 44.4017C34.8951 43.6984 34.5 42.7446 34.5 41.75V25.5H49.5V41.75Z" fill="#4ABD95"/>
<path d="M39.5 40.5C39.8315 40.5 40.1495 40.3683 40.3839 40.1339C40.6183 39.8995 40.75 39.5815 40.75 39.25V31.75C40.75 31.4185 40.6183 31.1005 40.3839 30.8661C40.1495 30.6317 39.8315 30.5 39.5 30.5C39.1685 30.5 38.8505 30.6317 38.6161 30.8661C38.3817 31.1005 38.25 31.4185 38.25 31.75V39.25C38.25 39.5815 38.3817 39.8995 38.6161 40.1339C38.8505 40.3683 39.1685 40.5 39.5 40.5Z" fill="#4ABD95"/>
<path d="M44.5 40.5C44.8315 40.5 45.1495 40.3683 45.3839 40.1339C45.6183 39.8995 45.75 39.5815 45.75 39.25V31.75C45.75 31.4185 45.6183 31.1005 45.3839 30.8661C45.1495 30.6317 44.8315 30.5 44.5 30.5C44.1685 30.5 43.8505 30.6317 43.6161 30.8661C43.3817 31.1005 43.25 31.4185 43.25 31.75V39.25C43.25 39.5815 43.3817 39.8995 43.6161 40.1339C43.8505 40.3683 44.1685 40.5 44.5 40.5Z" fill="#4ABD95"/>
</g>
<path d="M8.28089 101H2.36612V83.5455H8.40021C10.1332 83.5455 11.6218 83.8949 12.8661 84.5938C14.1161 85.2869 15.0764 86.2841 15.7468 87.5852C16.4173 88.8864 16.7525 90.4432 16.7525 92.2557C16.7525 94.0739 16.4144 95.6364 15.7383 96.9432C15.0678 98.25 14.0991 99.2528 12.832 99.9517C11.5707 100.651 10.0536 101 8.28089 101ZM5.52805 98.2642H8.12749C9.34339 98.2642 10.3576 98.0426 11.1701 97.5994C11.9826 97.1506 12.5934 96.483 13.0025 95.5966C13.4116 94.7045 13.6161 93.5909 13.6161 92.2557C13.6161 90.9205 13.4116 89.8125 13.0025 88.9318C12.5934 88.0455 11.9883 87.3835 11.1871 86.946C10.3917 86.5028 9.40305 86.2812 8.22124 86.2812H5.52805V98.2642ZM25.4158 101.256C24.1033 101.256 22.9698 100.983 22.0153 100.438C21.0664 99.8864 20.3363 99.108 19.8249 98.1023C19.3136 97.0909 19.0579 95.9006 19.0579 94.5312C19.0579 93.1847 19.3136 92.0028 19.8249 90.9858C20.342 89.9631 21.0636 89.1676 21.9897 88.5994C22.9158 88.0256 24.0039 87.7386 25.2539 87.7386C26.0607 87.7386 26.8221 87.8693 27.538 88.1307C28.2596 88.3864 28.896 88.7841 29.4471 89.3239C30.0039 89.8636 30.4414 90.5511 30.7596 91.3864C31.0778 92.2159 31.2369 93.2045 31.2369 94.3523V95.2983H20.5067V93.2188H28.2795C28.2738 92.6278 28.146 92.1023 27.896 91.642C27.646 91.1761 27.2965 90.8097 26.8477 90.5426C26.4045 90.2756 25.8874 90.142 25.2965 90.142C24.6658 90.142 24.1119 90.2955 23.6346 90.6023C23.1573 90.9034 22.7852 91.3011 22.5181 91.7955C22.2567 92.2841 22.1232 92.821 22.1175 93.4062V95.2216C22.1175 95.983 22.2567 96.6364 22.5352 97.1818C22.8136 97.7216 23.2028 98.1364 23.7028 98.4261C24.2028 98.7102 24.788 98.8523 25.4585 98.8523C25.9073 98.8523 26.3136 98.7898 26.6772 98.6648C27.0408 98.5341 27.3562 98.3438 27.6232 98.0938C27.8903 97.8438 28.092 97.5341 28.2283 97.1648L31.109 97.4886C30.9272 98.25 30.5806 98.9148 30.0692 99.483C29.5636 100.045 28.9158 100.483 28.1261 100.795C27.3363 101.102 26.4329 101.256 25.4158 101.256ZM36.9322 83.5455V101H33.8469V83.5455H36.9322ZM45.9002 101.256C44.5877 101.256 43.4542 100.983 42.4996 100.438C41.5508 99.8864 40.8207 99.108 40.3093 98.1023C39.7979 97.0909 39.5423 95.9006 39.5423 94.5312C39.5423 93.1847 39.7979 92.0028 40.3093 90.9858C40.8263 89.9631 41.5479 89.1676 42.4741 88.5994C43.4002 88.0256 44.4883 87.7386 45.7383 87.7386C46.5451 87.7386 47.3065 87.8693 48.0224 88.1307C48.744 88.3864 49.3803 88.7841 49.9315 89.3239C50.4883 89.8636 50.9258 90.5511 51.244 91.3864C51.5621 92.2159 51.7212 93.2045 51.7212 94.3523V95.2983H40.9911V93.2188H48.7638C48.7582 92.6278 48.6303 92.1023 48.3803 91.642C48.1303 91.1761 47.7809 90.8097 47.332 90.5426C46.8888 90.2756 46.3718 90.142 45.7809 90.142C45.1502 90.142 44.5962 90.2955 44.119 90.6023C43.6417 90.9034 43.2695 91.3011 43.0025 91.7955C42.7411 92.2841 42.6076 92.821 42.6019 93.4062V95.2216C42.6019 95.983 42.7411 96.6364 43.0195 97.1818C43.2979 97.7216 43.6871 98.1364 44.1871 98.4261C44.6871 98.7102 45.2724 98.8523 45.9428 98.8523C46.3917 98.8523 46.7979 98.7898 47.1616 98.6648C47.5252 98.5341 47.8406 98.3438 48.1076 98.0938C48.3746 97.8438 48.5763 97.5341 48.7127 97.1648L51.5934 97.4886C51.4116 98.25 51.065 98.9148 50.5536 99.483C50.0479 100.045 49.4002 100.483 48.6104 100.795C47.8207 101.102 46.9173 101.256 45.9002 101.256ZM60.8683 87.9091V90.2955H53.3427V87.9091H60.8683ZM55.2006 84.7727H58.2859V97.0625C58.2859 97.4773 58.3484 97.7955 58.4734 98.017C58.604 98.233 58.7745 98.3807 58.9847 98.4602C59.195 98.5398 59.4279 98.5795 59.6836 98.5795C59.8768 98.5795 60.0529 98.5653 60.212 98.5369C60.3768 98.5085 60.5018 98.483 60.587 98.4602L61.1069 100.872C60.9421 100.929 60.7063 100.991 60.3995 101.06C60.0984 101.128 59.729 101.168 59.2915 101.179C58.5188 101.202 57.8228 101.085 57.2035 100.83C56.5842 100.568 56.0927 100.165 55.729 99.6193C55.3711 99.0739 55.195 98.392 55.2006 97.5739V84.7727ZM69.1033 101.256C67.7908 101.256 66.6573 100.983 65.7028 100.438C64.7539 99.8864 64.0238 99.108 63.5124 98.1023C63.0011 97.0909 62.7454 95.9006 62.7454 94.5312C62.7454 93.1847 63.0011 92.0028 63.5124 90.9858C64.0295 89.9631 64.7511 89.1676 65.6772 88.5994C66.6033 88.0256 67.6914 87.7386 68.9414 87.7386C69.7482 87.7386 70.5096 87.8693 71.2255 88.1307C71.9471 88.3864 72.5835 88.7841 73.1346 89.3239C73.6914 89.8636 74.1289 90.5511 74.4471 91.3864C74.7653 92.2159 74.9244 93.2045 74.9244 94.3523V95.2983H64.1942V93.2188H71.967C71.9613 92.6278 71.8335 92.1023 71.5835 91.642C71.3335 91.1761 70.984 90.8097 70.5352 90.5426C70.092 90.2756 69.5749 90.142 68.984 90.142C68.3533 90.142 67.7994 90.2955 67.3221 90.6023C66.8448 90.9034 66.4727 91.3011 66.2056 91.7955C65.9442 92.2841 65.8107 92.821 65.805 93.4062V95.2216C65.805 95.983 65.9442 96.6364 66.2227 97.1818C66.5011 97.7216 66.8903 98.1364 67.3903 98.4261C67.8903 98.7102 68.4755 98.8523 69.146 98.8523C69.5948 98.8523 70.0011 98.7898 70.3647 98.6648C70.7283 98.5341 71.0437 98.3438 71.3107 98.0938C71.5778 97.8438 71.7795 97.5341 71.9158 97.1648L74.7965 97.4886C74.6147 98.25 74.2681 98.9148 73.7567 99.483C73.2511 100.045 72.6033 100.483 71.8136 100.795C71.0238 101.102 70.1204 101.256 69.1033 101.256ZM81.31 83.5455L81.0288 95.8693H78.2844L78.0117 83.5455H81.31ZM79.6566 101.188C79.1396 101.188 78.6964 101.006 78.3271 100.642C77.9634 100.278 77.7816 99.8352 77.7816 99.3125C77.7816 98.8011 77.9634 98.3636 78.3271 98C78.6964 97.6364 79.1396 97.4545 79.6566 97.4545C80.1623 97.4545 80.5998 97.6364 80.9691 98C81.3441 98.3636 81.5316 98.8011 81.5316 99.3125C81.5316 99.6591 81.4435 99.9744 81.2674 100.259C81.0969 100.543 80.8697 100.77 80.5856 100.94C80.3072 101.105 79.9975 101.188 79.6566 101.188Z" fill="#4ABD95"/>
<defs>
<clipPath id="clip0_2052_5947">
<rect width="30" height="30" fill="white" transform="translate(27 18)"/>
</clipPath>
</defs>
</svg>
