<svg width="20" height="21" viewBox="0 0 20 21" fill="none" xmlns="http://www.w3.org/2000/svg">
<g id="mingcute:delete-2-line">
<g id="Group">
<path id="Vector" d="M11.9 1.78223C12.2498 1.78232 12.5907 1.89246 12.8744 2.09707C13.1581 2.30167 13.3703 2.59035 13.4808 2.92223L13.9333 4.28223H16.6667C16.8877 4.28223 17.0996 4.37002 17.2559 4.5263C17.4122 4.68258 17.5 4.89455 17.5 5.11556C17.5 5.33657 17.4122 5.54853 17.2559 5.70482C17.0996 5.8611 16.8877 5.94889 16.6667 5.94889L16.6642 6.00806L15.9417 16.1272C15.8966 16.7577 15.6143 17.3478 15.1517 17.7785C14.6891 18.2093 14.0805 18.4488 13.4483 18.4489H6.55167C5.91955 18.4488 5.31092 18.2093 4.84831 17.7785C4.38569 17.3478 4.10342 16.7577 4.05833 16.1272L3.33583 6.00723C3.33433 5.98782 3.33349 5.96836 3.33333 5.94889C3.11232 5.94889 2.90036 5.8611 2.74408 5.70482C2.5878 5.54853 2.5 5.33657 2.5 5.11556C2.5 4.89455 2.5878 4.68258 2.74408 4.5263C2.90036 4.37002 3.11232 4.28223 3.33333 4.28223H6.06667L6.51917 2.92223C6.62975 2.59022 6.84203 2.30144 7.12592 2.09682C7.4098 1.89221 7.75089 1.78214 8.10083 1.78223H11.9ZM14.9975 5.94889H5.0025L5.72083 16.0081C5.73579 16.2182 5.82981 16.4149 5.98397 16.5586C6.13812 16.7022 6.34096 16.7821 6.55167 16.7822H13.4483C13.659 16.7821 13.8619 16.7022 14.016 16.5586C14.1702 16.4149 14.2642 16.2182 14.2792 16.0081L14.9975 5.94889ZM8.33333 8.44889C8.53744 8.44892 8.73445 8.52386 8.88698 8.65949C9.03951 8.79512 9.13695 8.98202 9.16083 9.18473L9.16667 9.28223V13.4489C9.16643 13.6613 9.0851 13.8656 8.93929 14.02C8.79349 14.1745 8.59421 14.2674 8.38217 14.2799C8.17014 14.2923 7.96135 14.2233 7.79847 14.087C7.6356 13.9507 7.53092 13.7573 7.50583 13.5464L7.5 13.4489V9.28223C7.5 9.06121 7.5878 8.84925 7.74408 8.69297C7.90036 8.53669 8.11232 8.44889 8.33333 8.44889ZM11.6667 8.44889C11.8877 8.44889 12.0996 8.53669 12.2559 8.69297C12.4122 8.84925 12.5 9.06121 12.5 9.28223V13.4489C12.5 13.6699 12.4122 13.8819 12.2559 14.0381C12.0996 14.1944 11.8877 14.2822 11.6667 14.2822C11.4457 14.2822 11.2337 14.1944 11.0774 14.0381C10.9211 13.8819 10.8333 13.6699 10.8333 13.4489V9.28223C10.8333 9.06121 10.9211 8.84925 11.0774 8.69297C11.2337 8.53669 11.4457 8.44889 11.6667 8.44889ZM11.9 3.44889H8.1L7.8225 4.28223H12.1775L11.9 3.44889Z" fill="#C2C2C2"/>
</g>
</g>
</svg>
