<svg width="14" height="9" viewBox="0 0 14 9" fill="none" xmlns="http://www.w3.org/2000/svg">
<path id="Vector" d="M13.0653 1.31271C13.0208 1.20461 12.9454 1.11212 12.8484 1.04693C12.7514 0.981733 12.6372 0.946765 12.5204 0.946443L0.702699 0.916298C0.585766 0.915908 0.471346 0.95022 0.373924 1.01489C0.276503 1.07957 0.200461 1.17169 0.155424 1.2796C0.110388 1.38752 0.0983821 1.50637 0.120928 1.62111C0.143473 1.73585 0.199555 1.84132 0.282075 1.92417L6.17584 7.84808C6.23058 7.90315 6.29563 7.9469 6.36729 7.97682C6.43895 8.00674 6.5158 8.02224 6.59345 8.02244C6.6711 8.02264 6.74803 8.00753 6.81984 7.97798C6.89164 7.94842 6.95692 7.90501 7.01194 7.85021L12.9359 1.95644C13.0187 1.87397 13.0752 1.76879 13.0982 1.65421C13.1212 1.53962 13.1098 1.42078 13.0653 1.31271Z" fill="#000"/>
</svg>
