<svg width="20" height="21" viewBox="0 0 20 21" fill="none" xmlns="http://www.w3.org/2000/svg">
<g id="Frame 1000009614">
<path id="icon-edit" d="M19.0442 1.38339C18.4776 0.817717 17.7098 0.5 16.9092 0.5C16.1086 0.5 15.3407 0.817717 14.7742 1.38339L1.22085 14.9367C0.832722 15.3227 0.524981 15.7817 0.315428 16.2874C0.105874 16.793 -0.00133165 17.3352 1.24844e-05 17.8826V19.5934C1.24844e-05 19.8144 0.0878099 20.0264 0.24409 20.1826C0.40037 20.3389 0.612332 20.4267 0.833346 20.4267H2.54418C3.09148 20.4283 3.63365 20.3212 4.13931 20.1118C4.64496 19.9024 5.10406 19.5948 5.49001 19.2067L19.0442 5.65255C19.6096 5.08605 19.9271 4.31836 19.9271 3.51797C19.9271 2.71758 19.6096 1.94989 19.0442 1.38339ZM4.31168 18.0284C3.84168 18.4953 3.20665 18.7581 2.54418 18.7601H1.66668V17.8826C1.66584 17.5541 1.73014 17.2288 1.85588 16.9254C1.98161 16.622 2.16628 16.3466 2.39918 16.1151L12.685 5.82922L14.6017 7.74589L4.31168 18.0284ZM17.865 4.47422L15.7767 6.56339L13.86 4.65089L15.9492 2.56172C16.075 2.43614 16.2244 2.33658 16.3887 2.26873C16.553 2.20087 16.7291 2.16604 16.9069 2.16624C17.0847 2.16643 17.2607 2.20164 17.4249 2.26985C17.5891 2.33807 17.7382 2.43795 17.8638 2.5638C17.9893 2.68965 18.0889 2.839 18.1568 3.00333C18.2246 3.16766 18.2594 3.34374 18.2592 3.52153C18.2591 3.69931 18.2238 3.87532 18.1556 4.0395C18.0874 4.20367 17.9875 4.35281 17.8617 4.47839L17.865 4.47422Z" fill="#C2C2C2"/>
</g>
</svg>
