<svg width="43" height="42" viewBox="0 0 43 42" fill="none" xmlns="http://www.w3.org/2000/svg">
<g id="7123025_logo_google_g_icon 1">
<g id="Group">
<path id="Vector" d="M34.1 21.308C34.1 20.44 34.016 19.544 33.876 18.704H21.752V23.66H28.696C28.416 25.256 27.492 26.656 26.12 27.552L30.264 30.772C32.7 28.504 34.1 25.2 34.1 21.308Z" fill="#4280EF"/>
<path id="Vector_2" d="M21.752 33.852C25.224 33.852 28.136 32.704 30.264 30.744L26.12 27.552C24.972 28.336 23.488 28.784 21.752 28.784C18.392 28.784 15.564 26.516 14.528 23.492L10.272 26.768C12.456 31.108 16.88 33.852 21.752 33.852Z" fill="#34A353"/>
<path id="Vector_3" d="M14.528 23.464C13.996 21.868 13.996 20.132 14.528 18.536L10.272 15.232C8.45201 18.872 8.45201 23.156 10.272 26.768L14.528 23.464Z" fill="#F6B704"/>
<path id="Vector_4" d="M21.752 13.244C23.572 13.216 25.364 13.916 26.68 15.176L30.348 11.48C28.024 9.29601 24.944 8.12001 21.752 8.14801C16.88 8.14801 12.456 10.892 10.272 15.232L14.528 18.536C15.564 15.484 18.392 13.244 21.752 13.244Z" fill="#E54335"/>
</g>
</g>
</svg>
