<svg width="25" height="25" viewBox="0 0 25 25" fill="none" xmlns="http://www.w3.org/2000/svg">
<g id="material-symbols:info-outline">
<path id="Vector" d="M11.457 17.7085H13.5404V11.4585H11.457V17.7085ZM12.4987 9.37516C12.7938 9.37516 13.0414 9.27516 13.2414 9.07516C13.4414 8.87516 13.5411 8.62794 13.5404 8.3335C13.5404 8.03836 13.4404 7.79079 13.2404 7.59079C13.0404 7.39079 12.7931 7.29114 12.4987 7.29183C12.2036 7.29183 11.956 7.39183 11.756 7.59183C11.556 7.79183 11.4563 8.03905 11.457 8.3335C11.457 8.62864 11.557 8.87621 11.757 9.07621C11.957 9.27621 12.2043 9.37586 12.4987 9.37516ZM12.4987 22.9168C11.0577 22.9168 9.70356 22.6432 8.4362 22.096C7.16884 21.5488 6.06641 20.8068 5.12891 19.87C4.19141 18.9325 3.44939 17.83 2.90286 16.5627C2.35634 15.2953 2.08273 13.9411 2.08203 12.5002C2.08203 11.0592 2.35564 9.70502 2.90286 8.43766C3.45009 7.1703 4.1921 6.06787 5.12891 5.13037C6.06641 4.19287 7.16884 3.45086 8.4362 2.90433C9.70356 2.3578 11.0577 2.08419 12.4987 2.0835C13.9397 2.0835 15.2938 2.35711 16.5612 2.90433C17.8286 3.45155 18.931 4.19357 19.8685 5.13037C20.806 6.06787 21.5484 7.1703 22.0956 8.43766C22.6428 9.70502 22.9161 11.0592 22.9154 12.5002C22.9154 13.9411 22.6418 15.2953 22.0945 16.5627C21.5473 17.83 20.8053 18.9325 19.8685 19.87C18.931 20.8075 17.8286 21.5498 16.5612 22.097C15.2938 22.6443 13.9397 22.9175 12.4987 22.9168ZM12.4987 20.8335C14.8251 20.8335 16.7956 20.0262 18.4102 18.4116C20.0247 16.797 20.832 14.8266 20.832 12.5002C20.832 10.1738 20.0247 8.20329 18.4102 6.5887C16.7956 4.97412 14.8251 4.16683 12.4987 4.16683C10.1723 4.16683 8.20182 4.97412 6.58724 6.5887C4.97266 8.20329 4.16536 10.1738 4.16536 12.5002C4.16536 14.8266 4.97266 16.797 6.58724 18.4116C8.20182 20.0262 10.1723 20.8335 12.4987 20.8335Z" fill="#C2C2C2"/>
</g>
</svg>
