<svg width="26" height="26" viewBox="0 0 26 26" fill="none" xmlns="http://www.w3.org/2000/svg">
<g id="Icon / Logout">
<path id="Vector" d="M19.9456 3.44047C20.5185 3.44452 21.0076 3.65214 21.4131 4.06335C21.8185 4.47455 22.0189 4.96626 22.0141 5.53846L21.9112 20.1214C21.9071 20.6943 21.6995 21.1835 21.2883 21.5889C20.8771 21.9944 20.3854 22.1947 19.8132 22.19L12.5217 22.1385L12.5364 20.0553L19.8279 20.1067L19.9308 5.52375L12.6394 5.47228L12.6541 3.389L19.9456 3.44047ZM8.45809 7.52615L9.87969 9.04664L7.20475 11.6841L15.7202 11.7442L15.7055 13.8275L7.19005 13.7674L9.82748 16.4423L8.38456 17.9426L3.21312 12.6976L8.45809 7.52615Z" fill="#6E6D7A"/>
</g>
</svg>
