<svg width="381" height="318" viewBox="0 0 381 318" fill="none" xmlns="http://www.w3.org/2000/svg">
<g id="No Results">
<g id="circle">
<path id="Stroke 1" d="M14.6719 145.815V149.017" stroke="#D2D8DF" stroke-width="2.921" stroke-linecap="round"/>
<g id="Group 8">
<path id="Stroke 2" d="M7.47656 147.549L10.0929 150.243" stroke="#D2D8DF" stroke-width="2.921" stroke-linecap="round"/>
<path id="Stroke 4" d="M4.41797 154.718H8.11749" stroke="#D2D8DF" stroke-width="2.921" stroke-linecap="round"/>
<path id="Stroke 6" d="M7.17773 162.016L9.79411 159.322" stroke="#D2D8DF" stroke-width="2.921" stroke-linecap="round"/>
</g>
<path id="Stroke 9" d="M14.6719 162.892V159.69" stroke="#D2D8DF" stroke-width="2.921" stroke-linecap="round"/>
<path id="Stroke 10" d="M20.0115 160.757L17.877 158.622" stroke="#D2D8DF" stroke-width="2.921" stroke-linecap="round"/>
<path id="Stroke 11" d="M24.2839 155.42H21.082" stroke="#D2D8DF" stroke-width="2.921" stroke-linecap="round"/>
<path id="Stroke 12" d="M22.1502 147.949L20.0156 150.084" stroke="#D2D8DF" stroke-width="2.921" stroke-linecap="round"/>
<path id="Stroke 13" d="M186.504 6V8.13458" stroke="#D2D8DF" stroke-width="2.921" stroke-linecap="round"/>
<path id="Stroke 15" d="M180.1 12.4043H182.234" stroke="#D2D8DF" stroke-width="2.921" stroke-linecap="round"/>
<path id="Stroke 16" d="M186.504 18.8074V16.6729" stroke="#D2D8DF" stroke-width="2.921" stroke-linecap="round"/>
<path id="Stroke 17" d="M191.844 12.4043H189.709" stroke="#D2D8DF" stroke-width="2.921" stroke-linecap="round"/>
<path id="Stroke 18" d="M62.707 95.6528V98.8547" stroke="#D2D8DF" stroke-width="2.921" stroke-linecap="round"/>
<path id="Stroke 19" d="M53.0977 105.258H56.2995" stroke="#D2D8DF" stroke-width="2.921" stroke-linecap="round"/>
<path id="Stroke 20" d="M62.707 113.796V110.594" stroke="#D2D8DF" stroke-width="2.921" stroke-linecap="round"/>
<path id="Stroke 21" d="M71.2409 105.258H68.0391" stroke="#D2D8DF" stroke-width="2.921" stroke-linecap="round"/>
<g id="Group 42">
<path id="Stroke 22" d="M292.432 212.029C294.982 212.029 297.051 214.098 297.051 216.649C297.051 219.201 294.982 221.27 292.432 221.27C289.881 221.27 287.812 219.201 287.812 216.649" stroke="#D2D8DF" stroke-width="2.921" stroke-linecap="round"/>
<path id="Fill 26" fill-rule="evenodd" clip-rule="evenodd" d="M313.57 170.11C316.313 169.255 320.517 165.9 321.49 162.292C322.373 165.482 326.072 169.255 329.41 169.54C325.653 170.871 322.06 174.823 321.49 177.928C321.103 174.763 316.134 170.572 313.57 170.11Z" fill="#EBECEE"/>
<path id="Fill 28" fill-rule="evenodd" clip-rule="evenodd" d="M32.0332 210.606C33.405 210.178 35.5062 208.501 35.9928 206.697C36.434 208.291 38.2834 210.178 39.9524 210.321C38.0741 210.985 36.2782 212.962 35.9928 214.515C35.7989 212.932 33.3144 210.836 32.0332 210.606Z" fill="#EBECEE"/>
<path id="Fill 30" fill-rule="evenodd" clip-rule="evenodd" d="M57.4897 62.1369C57.4897 64.1163 55.8859 65.7196 53.9079 65.7196C51.929 65.7196 50.3262 64.1163 50.3262 62.1369C50.3262 60.1584 51.929 58.5542 53.9079 58.5542C55.8859 58.5542 57.4897 60.1584 57.4897 62.1369Z" fill="#D1D8DF"/>
<path id="Fill 32" fill-rule="evenodd" clip-rule="evenodd" d="M296.657 71.7566C296.657 75.0638 293.976 77.7447 290.671 77.7447C287.364 77.7447 284.684 75.0638 284.684 71.7566C284.684 68.4494 287.364 65.7686 290.671 65.7686C293.976 65.7686 296.657 68.4494 296.657 71.7566Z" fill="#EBECEE"/>
<path id="Fill 34" fill-rule="evenodd" clip-rule="evenodd" d="M379.586 55.5332C379.586 58.157 377.461 60.2832 374.839 60.2832C372.216 60.2832 370.09 58.157 370.09 55.5332C370.09 52.9094 372.216 50.7832 374.839 50.7832C377.461 50.7832 379.586 52.9094 379.586 55.5332Z" fill="#EBECEE"/>
<path id="Stroke 36" fill-rule="evenodd" clip-rule="evenodd" d="M124.428 277.377C124.428 279.031 123.088 280.372 121.434 280.372C119.782 280.372 118.441 279.031 118.441 277.377C118.441 275.723 119.782 274.383 121.434 274.383C123.088 274.383 124.428 275.723 124.428 277.377Z" stroke="#D2D8DF" stroke-width="2.921" stroke-linecap="round"/>
<path id="Stroke 38" fill-rule="evenodd" clip-rule="evenodd" d="M122.646 39.1198C122.646 41.0992 121.042 42.7025 119.064 42.7025C117.086 42.7025 115.482 41.0992 115.482 39.1198C115.482 37.1413 117.086 35.5371 119.064 35.5371C121.042 35.5371 122.646 37.1413 122.646 39.1198Z" stroke="#D2D8DF" stroke-width="2.921" stroke-linecap="round"/>
<path id="Stroke 40" fill-rule="evenodd" clip-rule="evenodd" d="M214.014 310.537C211.725 311.408 209.164 310.258 208.293 307.969C207.422 305.68 208.571 303.117 210.861 302.247C213.149 301.376 215.71 302.525 216.581 304.814C217.453 307.104 216.303 309.666 214.014 310.537Z" stroke="#D2D8DF" stroke-width="2.921" stroke-linecap="round"/>
</g>
</g>
<g id="search">
<g id="documents">
<path id="Fill 1" fill-rule="evenodd" clip-rule="evenodd" d="M243.733 225.861H156.211C150.05 225.861 145.008 220.804 145.008 214.623V89.8115C145.008 83.6306 150.05 78.5757 156.211 78.5757H243.733C249.896 78.5757 254.938 83.6306 254.938 89.8115V214.623C254.938 220.804 249.896 225.861 243.733 225.861Z" fill="#E0E2EE"/>
<path id="Fill 3" fill-rule="evenodd" clip-rule="evenodd" d="M236.262 231.198H148.74C142.58 231.198 137.537 226.14 137.537 219.959V95.148C137.537 88.967 142.58 83.9121 148.74 83.9121H236.262C242.425 83.9121 247.468 88.967 247.468 95.148V219.959C247.468 226.14 242.425 231.198 236.262 231.198Z" fill="#E8EBF2"/>
<path id="Fill 5" fill-rule="evenodd" clip-rule="evenodd" d="M228.996 235.41H141.292C135.119 235.41 130.066 230.374 130.066 224.218V99.9237C130.066 93.7683 135.119 88.7344 141.292 88.7344H228.996C235.171 88.7344 240.224 93.7683 240.224 99.9237V224.218C240.224 230.374 235.171 235.41 228.996 235.41Z" fill="#D8DBEA"/>
<path id="Fill 8" fill-rule="evenodd" clip-rule="evenodd" d="M228.996 235.41H141.292C135.119 235.41 130.066 230.374 130.066 224.218V99.9237C130.066 93.7683 135.119 88.7344 141.292 88.7344H228.996C235.171 88.7344 240.224 93.7683 240.224 99.9237V224.218C240.224 230.374 235.171 235.41 228.996 235.41Z" fill="#F1F2F7"/>
<path id="Fill 11" fill-rule="evenodd" clip-rule="evenodd" d="M216.351 126.604H151.571C149.721 126.604 148.207 125.164 148.207 123.404C148.207 121.641 149.721 120.201 151.571 120.201H216.351C218.201 120.201 219.715 121.641 219.715 123.404C219.715 125.164 218.201 126.604 216.351 126.604Z" fill="#E0E2EE"/>
<path id="Fill 13" fill-rule="evenodd" clip-rule="evenodd" d="M216.351 145.816H151.571C149.721 145.816 148.207 144.375 148.207 142.615C148.207 140.853 149.721 139.412 151.571 139.412H216.351C218.201 139.412 219.715 140.853 219.715 142.615C219.715 144.375 218.201 145.816 216.351 145.816Z" fill="#E0E2EE"/>
<path id="Fill 15" fill-rule="evenodd" clip-rule="evenodd" d="M216.351 165.026H151.571C149.721 165.026 148.207 163.585 148.207 161.825C148.207 160.065 149.721 158.622 151.571 158.622H216.351C218.201 158.622 219.715 160.065 219.715 161.825C219.715 163.585 218.201 165.026 216.351 165.026Z" fill="#E0E2EE"/>
<path id="Fill 17" fill-rule="evenodd" clip-rule="evenodd" d="M216.351 184.237H151.571C149.721 184.237 148.207 182.797 148.207 181.037C148.207 179.274 149.721 177.833 151.571 177.833H216.351C218.201 177.833 219.715 179.274 219.715 181.037C219.715 182.797 218.201 184.237 216.351 184.237Z" fill="#E0E2EE"/>
<path id="Fill 19" fill-rule="evenodd" clip-rule="evenodd" d="M185.385 203.449H151.586C149.728 203.449 148.207 202.008 148.207 200.248C148.207 198.486 149.728 197.045 151.586 197.045H185.385C187.243 197.045 188.764 198.486 188.764 200.248C188.764 202.008 187.243 203.449 185.385 203.449Z" fill="#E0E2EE"/>
</g>
</g>
<g id="carbon:close-filled">
<path id="Vector" d="M241.582 198.75C226.957 198.75 215.332 210.375 215.332 225C215.332 239.625 226.957 251.25 241.582 251.25C256.207 251.25 267.832 239.625 267.832 225C267.832 210.375 256.207 198.75 241.582 198.75ZM251.707 238.125L241.582 228L231.457 238.125L228.457 235.125L238.582 225L228.457 214.875L231.457 211.875L241.582 222L251.707 211.875L254.707 214.875L244.582 225L254.707 235.125L251.707 238.125Z" fill="#4ABD95"/>
</g>
</g>
</svg>
