<svg width="20" height="21" viewBox="0 0 20 21" fill="none" xmlns="http://www.w3.org/2000/svg">
<g id="Icon / Page">
<g id="Union">
<path d="M6.66667 8.08659C6.20643 8.08659 5.83333 8.45969 5.83333 8.91992C5.83333 9.38016 6.20643 9.75326 6.66667 9.75326H13.3333C13.7936 9.75326 14.1667 9.38016 14.1667 8.91992C14.1667 8.45969 13.7936 8.08659 13.3333 8.08659H6.66667Z" fill="white" fill-opacity="0.5"/>
<path d="M6.66667 11.4199C6.20643 11.4199 5.83333 11.793 5.83333 12.2533C5.83333 12.7135 6.20643 13.0866 6.66667 13.0866H10C10.4602 13.0866 10.8333 12.7135 10.8333 12.2533C10.8333 11.793 10.4602 11.4199 10 11.4199H6.66667Z" fill="white" fill-opacity="0.5"/>
<path d="M6.66667 14.7533C6.20643 14.7533 5.83333 15.1264 5.83333 15.5866C5.83333 16.0468 6.20643 16.4199 6.66667 16.4199H13.3333C13.7936 16.4199 14.1667 16.0468 14.1667 15.5866C14.1667 15.1264 13.7936 14.7533 13.3333 14.7533H6.66667Z" fill="white" fill-opacity="0.5"/>
<path fill-rule="evenodd" clip-rule="evenodd" d="M17.399 4.86791C17.3319 4.7056 17.2335 4.55814 17.1093 4.434L14.4863 1.81103C14.2365 1.56091 13.8976 1.42023 13.5441 1.41992H3.83333C3.47971 1.41992 3.14057 1.5604 2.89052 1.81045C2.64048 2.06049 2.5 2.39963 2.5 2.75326V18.4199C2.5 18.595 2.53449 18.7684 2.60149 18.9302C2.6685 19.0919 2.76671 19.2389 2.89052 19.3627C3.01433 19.4865 3.16132 19.5848 3.32309 19.6518C3.48486 19.7188 3.65824 19.7533 3.83333 19.7533H16.1667C16.3418 19.7533 16.5151 19.7188 16.6769 19.6518C16.8387 19.5848 16.9857 19.4865 17.1095 19.3627C17.2333 19.2389 17.3315 19.0919 17.3985 18.9302C17.4655 18.7684 17.5 18.595 17.5 18.4199V5.37851L16.6667 5.37826L17.5 5.3803L17.5 5.37851C17.5002 5.20333 17.4659 5.02982 17.399 4.86791ZM12.5 5.16992C12.5 5.86028 13.0596 6.41992 13.75 6.41992H15.8333V18.0866H4.16667V3.08659H12.5V5.16992ZM15.0715 4.75326L14.1667 3.84843V4.75326H15.0715Z" fill="white" fill-opacity="0.5"/>
</g>
</g>
</svg>
