<svg width="25" height="25" viewBox="0 0 25 25" fill="none" xmlns="http://www.w3.org/2000/svg">
<g id="ph:star-light">
<path id="Vector" d="M23.174 9.56061C23.0934 9.30448 22.938 9.07833 22.7277 8.91126C22.5175 8.74419 22.2621 8.64384 21.9944 8.62311L16.1877 8.12116C16.1526 8.1177 16.1191 8.1048 16.0907 8.08383C16.0623 8.06285 16.0402 8.03458 16.0266 8.00202L13.758 2.59577C13.653 2.34914 13.4777 2.13884 13.2541 1.99103C13.0304 1.84321 12.7683 1.7644 12.5002 1.7644C12.2321 1.7644 11.97 1.84321 11.7464 1.99103C11.5227 2.13884 11.3475 2.34914 11.2424 2.59577L8.97385 8.00202C8.96026 8.03458 8.9381 8.06285 8.90973 8.08383C8.88136 8.1048 8.84783 8.1177 8.81272 8.12116L3.00608 8.62311C2.73835 8.64384 2.48294 8.74419 2.27271 8.91126C2.06248 9.07833 1.90704 9.30448 1.82639 9.56061C1.74097 9.8171 1.73351 10.0932 1.80495 10.3539C1.87639 10.6146 2.02353 10.8483 2.22776 11.0255L6.63303 14.8682C6.66001 14.8922 6.68004 14.923 6.69104 14.9573C6.70203 14.9917 6.70358 15.0284 6.69553 15.0635L5.37131 20.7774C5.30958 21.0405 5.32719 21.3159 5.42192 21.569C5.51665 21.8221 5.68424 22.0414 5.90354 22.1993C6.11943 22.3586 6.37812 22.4495 6.6462 22.4603C6.91428 22.4711 7.17944 22.4012 7.40744 22.2598L12.3987 19.2325C12.428 19.2143 12.4618 19.2047 12.4963 19.2047C12.5308 19.2047 12.5646 19.2143 12.594 19.2325L17.5852 22.2598C17.8155 22.4009 18.0825 22.4705 18.3524 22.46C18.6224 22.4494 18.8831 22.3591 19.1017 22.2006C19.3204 22.042 19.4872 21.8222 19.5811 21.5689C19.6749 21.3156 19.6916 21.0402 19.6291 20.7774L18.3088 15.0616C18.3008 15.0264 18.3023 14.9897 18.3133 14.9554C18.3243 14.921 18.3443 14.8902 18.3713 14.8663L22.7766 11.0235C22.9798 10.8461 23.1259 10.6125 23.1966 10.3522C23.2674 10.0919 23.2595 9.81646 23.174 9.56061ZM22.0022 10.1387L17.5969 13.9815C17.4092 14.1448 17.2696 14.3563 17.1932 14.5931C17.1168 14.8299 17.1065 15.083 17.1633 15.3253L18.4836 21.0411C18.4934 21.0795 18.4912 21.1199 18.4774 21.1571C18.4637 21.1943 18.4389 21.2263 18.4065 21.2491C18.3771 21.2726 18.341 21.2861 18.3034 21.2877C18.2658 21.2893 18.2287 21.2788 18.1975 21.2579L13.2063 18.2305C12.9935 18.1012 12.7492 18.0328 12.5002 18.0328C12.2512 18.0328 12.007 18.1012 11.7942 18.2305L6.80295 21.2579C6.77172 21.2788 6.73461 21.2893 6.69702 21.2877C6.65943 21.2861 6.62333 21.2726 6.59397 21.2491C6.56153 21.2263 6.53677 21.1943 6.52299 21.1571C6.50921 21.1199 6.50706 21.0795 6.51682 21.0411L7.83713 15.3253C7.89398 15.083 7.88364 14.8299 7.80723 14.5931C7.73082 14.3563 7.59124 14.1448 7.40354 13.9815L2.99827 10.1387C2.96814 10.1131 2.9465 10.0789 2.93621 10.0408C2.92592 10.0026 2.92747 9.96216 2.94065 9.92487C2.95051 9.88773 2.97189 9.85468 3.00172 9.83047C3.03155 9.80625 3.0683 9.79212 3.10666 9.7901L8.91428 9.28815C9.16291 9.26697 9.401 9.17814 9.60275 9.0313C9.8045 8.88447 9.96222 8.68522 10.0588 8.45514L12.3274 3.04889C12.3431 3.01534 12.3681 2.98697 12.3994 2.96709C12.4307 2.94722 12.467 2.93667 12.5041 2.93667C12.5412 2.93667 12.5775 2.94722 12.6088 2.96709C12.6401 2.98697 12.6651 3.01534 12.6809 3.04889L14.9416 8.45514C15.0379 8.68467 15.195 8.88355 15.396 9.03035C15.597 9.17714 15.8343 9.26628 16.0822 9.28815L21.8899 9.7901C21.9282 9.79212 21.965 9.80625 21.9948 9.83047C22.0246 9.85468 22.046 9.88773 22.0559 9.92487C22.0695 9.96178 22.0717 10.0019 22.0621 10.0401C22.0525 10.0783 22.0316 10.1126 22.0022 10.1387Z" fill="#4ABD95"/>
</g>
</svg>
