<svg width="20" height="20" viewBox="0 0 20 20" fill="none" xmlns="http://www.w3.org/2000/svg">
<g id="eva:sync-fill">
<g id="evaSyncFill0">
<g id="evaSyncFill1">
<path id="evaSyncFill2" d="M18.0501 8.64175C18.078 8.59252 18.0978 8.53903 18.1084 8.48341L18.7334 5.15008C18.7732 4.92907 18.7235 4.7013 18.5954 4.51689C18.4672 4.33248 18.2711 4.20653 18.0501 4.16675C17.829 4.12696 17.6013 4.17661 17.4169 4.30476C17.2325 4.43291 17.1065 4.62907 17.0667 4.85008L16.7584 6.51675C16.0647 5.25001 15.0281 4.20442 13.7674 3.4999C12.5067 2.79538 11.0729 2.46045 9.63052 2.53353C8.18815 2.6066 6.79558 3.08472 5.61251 3.91306C4.42945 4.74139 3.5038 5.88639 2.94173 7.21675C2.85928 7.42122 2.86122 7.65004 2.94712 7.85309C3.03303 8.05613 3.1959 8.21687 3.40006 8.30008C3.50177 8.34219 3.61082 8.36374 3.72091 8.36346C3.831 8.36319 3.93994 8.34111 4.04144 8.29849C4.14295 8.25588 4.235 8.19357 4.31229 8.11518C4.38957 8.03678 4.45056 7.94385 4.49173 7.84175C4.94051 6.73908 5.71236 5.79798 6.70587 5.14208C7.69939 4.48618 8.86808 4.14618 10.0584 4.16675C11.1111 4.16184 12.1465 4.43516 13.0596 4.95905C13.9728 5.48294 14.7313 6.23879 15.2584 7.15008L13.8834 6.92508C13.774 6.90757 13.6621 6.91179 13.5543 6.93749C13.4465 6.96319 13.3448 7.00988 13.2551 7.07488C13.1653 7.13988 13.0892 7.22192 13.0312 7.31633C12.9731 7.41073 12.9342 7.51565 12.9167 7.62508C12.8992 7.73452 12.9034 7.84633 12.9291 7.95413C12.9548 8.06194 13.0015 8.16363 13.0665 8.25339C13.1315 8.34315 13.2136 8.41923 13.308 8.47729C13.4024 8.53534 13.5073 8.57424 13.6167 8.59175L17.1584 9.18341H17.2917C17.3885 9.18458 17.4846 9.16762 17.5751 9.13341C17.6056 9.12183 17.6338 9.1049 17.6584 9.08341C17.7181 9.0612 17.7743 9.03031 17.8251 8.99175L17.8917 8.90841C17.9349 8.86795 17.974 8.82329 18.0084 8.77508C18.0287 8.73289 18.0427 8.68797 18.0501 8.64175ZM16.5667 11.7251C16.4645 11.6832 16.355 11.6621 16.2445 11.6629C16.134 11.6637 16.0248 11.6865 15.9232 11.7299C15.8216 11.7734 15.7297 11.8366 15.6528 11.9158C15.5758 11.9951 15.5154 12.0889 15.4751 12.1917C15.0231 13.2828 14.2542 14.2132 13.2677 14.8624C12.2812 15.5117 11.1226 15.8499 9.94173 15.8334C8.88898 15.8383 7.85363 15.565 6.94049 15.0411C6.02734 14.5172 5.26883 13.7614 4.74173 12.8501L6.11673 13.0751H6.25006C6.47107 13.0928 6.69006 13.0219 6.85884 12.8781C7.02762 12.7344 7.13238 12.5294 7.15006 12.3084C7.16774 12.0874 7.0969 11.8684 6.95312 11.6996C6.80934 11.5308 6.60441 11.4261 6.38339 11.4084L2.84173 10.8334C2.75083 10.8167 2.65763 10.8167 2.56673 10.8334H2.50006C2.40575 10.8585 2.31582 10.8978 2.23339 10.9501C2.17721 10.9935 2.1268 11.0439 2.08339 11.1001L2.00839 11.1834C1.98264 11.2336 1.96305 11.2868 1.95006 11.3417C1.92086 11.3843 1.90098 11.4326 1.89173 11.4834L1.26673 14.8167C1.23996 14.9275 1.23619 15.0426 1.25565 15.1548C1.27511 15.2671 1.31739 15.3742 1.37987 15.4695C1.44235 15.5647 1.52371 15.6462 1.61891 15.7088C1.71412 15.7714 1.82115 15.8138 1.93339 15.8334H2.08339C2.28072 15.8366 2.47278 15.7697 2.62538 15.6446C2.77799 15.5194 2.88123 15.3442 2.91673 15.1501L3.22506 13.4834C3.91799 14.7505 4.95398 15.7966 6.21423 16.5018C7.47448 17.207 8.90797 17.5427 10.3503 17.4705C11.7926 17.3983 13.1854 16.9211 14.3689 16.0935C15.5525 15.266 16.4788 14.1217 17.0417 12.7917C17.1181 12.5872 17.1111 12.3608 17.0223 12.1613C16.9334 11.9618 16.7699 11.8052 16.5667 11.7251Z" fill="white"/>
</g>
</g>
</g>
</svg>
