<svg width="14" height="8" viewBox="0 0 14 8" fill="none" xmlns="http://www.w3.org/2000/svg">
<path id="Vector" d="M12.973 7.57401C12.9286 7.68211 12.8531 7.7746 12.7561 7.83979C12.6591 7.90499 12.545 7.93995 12.4281 7.94028L0.610414 7.97042C0.49348 7.97081 0.379061 7.9365 0.281639 7.87183C0.184218 7.80715 0.108175 7.71503 0.0631389 7.60711C0.0181025 7.4992 0.00609699 7.38035 0.0286423 7.26561C0.0511877 7.15087 0.10727 7.0454 0.18979 6.96255L6.08355 1.03864C6.13829 0.983565 6.20335 0.939816 6.275 0.909897C6.34666 0.879978 6.42351 0.864477 6.50116 0.864279C6.57881 0.864081 6.65574 0.87919 6.72755 0.908743C6.79936 0.938296 6.86464 0.981712 6.91966 1.03651L12.8436 6.93028C12.9264 7.01275 12.9829 7.11793 13.0059 7.23251C13.029 7.3471 13.0175 7.46594 12.973 7.57401Z" fill="#4ABD95"/>
</svg>
