<svg width="26" height="26" viewBox="0 0 26 26" fill="none" xmlns="http://www.w3.org/2000/svg">
<g id="Icon / User 1">
<path id="Union" fill-rule="evenodd" clip-rule="evenodd" d="M12.6539 3.21318C11.2726 3.20343 9.94402 3.7428 8.9604 4.71263C7.97678 5.68246 7.41871 7.00332 7.40896 8.38462C7.39921 9.76592 7.93858 11.0945 8.90841 12.0781C8.97663 12.1473 9.04659 12.2144 9.11819 12.2794C8.22312 12.6819 7.39776 13.2431 6.68547 13.9454C5.11167 15.4972 4.21876 17.6105 4.20316 19.8206L4.1958 20.8622C4.19174 21.4375 4.65481 21.9072 5.23009 21.9112C5.80537 21.9153 6.27502 21.4522 6.27909 20.877L6.28644 19.8353C6.29814 18.1778 6.96782 16.5927 8.14817 15.4289C9.32852 14.2651 10.9228 13.6179 12.5804 13.6296C14.238 13.6413 15.823 14.311 16.9868 15.4913C18.1506 16.6717 18.7978 18.266 18.7861 19.9235L18.7788 20.9652C18.7747 21.5405 19.2378 22.0101 19.8131 22.0142C20.3883 22.0182 20.858 21.5552 20.8621 20.9799L20.8694 19.9383C20.885 17.7282 20.022 15.6024 18.4703 14.0286C17.768 13.3163 16.9506 12.7435 16.0613 12.3284C16.1338 12.2645 16.2047 12.1984 16.2739 12.1301C17.2575 11.1603 17.8156 9.83945 17.8254 8.45815C17.8351 7.07685 17.2957 5.74825 16.3259 4.76462C15.3561 3.781 14.0352 3.22293 12.6539 3.21318ZM10.4231 6.19613C11.0133 5.61423 11.8104 5.29061 12.6392 5.29646C13.468 5.30231 14.2605 5.63715 14.8424 6.22733C15.4243 6.8175 15.7479 7.61466 15.7421 8.44344C15.7362 9.27222 15.4014 10.0647 14.8112 10.6466C14.221 11.2285 13.4239 11.5522 12.5951 11.5463C11.7663 11.5405 10.9738 11.2056 10.3919 10.6154C9.81001 10.0253 9.48639 9.22811 9.49224 8.39932C9.49809 7.57054 9.83293 6.77803 10.4231 6.19613Z" fill="#6E6D7A"/>
</g>
</svg>
